<svg xmlns="http://www.w3.org/2000/svg" width="16" height="12" class="" viewBox="0 0 16 14"><g fill="none" fill-rule="evenodd"><path d="M-2-3h20v20H-2V-3zm8.333 4.167h3.334v1.666H6.333V1.167zm0 0h3.334v1.666H6.333V1.167z"></path><path fill="#2874F0" fill-rule="nonzero" d="M6.467 10.067V9.3h-5.36L1.1 12.367c0 .85.682 1.533 1.533 1.533h10.734c.85 0 1.533-.682 1.533-1.533V9.3H9.533v.767H6.467zm7.666-6.9H11.06V1.633L9.526.1H6.459L4.926 1.633v1.534h-3.06c-.843 0-1.533.69-1.533 1.533V7c0 .851.683 1.533 1.534 1.533h4.6V7h3.066v1.533h4.6c.844 0 1.534-.69 1.534-1.533V4.7c0-.843-.69-1.533-1.534-1.533zm-4.6 0H6.467V1.633h3.066v1.534z"></path></g></svg>